<?xml version="1.0" encoding="iso-8859-1"?>
<!-- Uploaded to: SVG Repo, www.svgrepo.com, Generator: SVG Repo Mixer Tools -->
<svg height="800px" width="800px" version="1.1" id="Layer_1" xmlns="http://www.w3.org/2000/svg" xmlns:xlink="http://www.w3.org/1999/xlink" 
	 viewBox="0 0 512 512" xml:space="preserve">
<path style="fill:#CCCCCC;" d="M493.033,389.568c3.092,5.751,4.849,12.323,4.849,19.306c0,22.535-18.268,40.803-40.814,40.803
	c-11.501,0-114.639,0-123.527,0c-17.732,0-32.108-14.365-32.108-32.097c0-15.004,10.292-27.601,24.213-31.127
	c-0.011-0.319-0.034-0.65-0.034-0.981c0-31.196,22.25-57.188,51.745-62.996c4.028-0.787,8.204-1.21,12.471-1.21
	c11.205,0,21.737,2.864,30.91,7.919c15.004,8.261,26.335,22.353,30.979,39.228c1.757-0.228,3.537-0.354,5.351-0.354
	C472.631,368.06,486.152,376.766,493.033,389.568z"/>
<path style="fill:#B3B3B3;" d="M325.392,417.58c0-15.004,10.292-27.601,24.213-31.127c-0.011-0.319-0.034-0.65-0.034-0.981
	c0-31.196,22.25-57.188,51.745-62.996c0.169-0.033,0.341-0.056,0.511-0.088c-3.887-0.735-7.898-1.122-12-1.122
	c-4.267,0-8.444,0.422-12.471,1.21c-29.495,5.808-51.745,31.8-51.745,62.996c0,0.331,0.023,0.662,0.034,0.981
	c-13.921,3.526-24.213,16.123-24.213,31.127c0,17.732,14.377,32.097,32.108,32.097c2.387,0,11.578,0,23.96,0
	C339.769,449.677,325.392,435.312,325.392,417.58z"/>
<path style="fill:#E6E6E6;" d="M220.294,220.663c17.058,4.313,29.689,19.774,29.689,38.179c0,21.748-17.629,39.377-39.377,39.377
	c-10.897,0-137.413,0-151.516,0c-27.658,0-50.068-22.421-50.068-50.068c0-13.076,5.021-24.988,13.236-33.911
	c9.151-9.927,22.261-16.145,36.832-16.145c2.225,0,4.404,0.16,6.561,0.445c8.546-31.104,35.668-54.507,68.69-57.508
	c2.385-0.217,4.792-0.331,7.234-0.331c18.952,0,36.33,6.698,49.931,17.857c11.764,9.653,20.687,22.661,25.308,37.551
	c2.282,7.382,3.514,15.221,3.514,23.357C220.328,219.864,220.305,220.263,220.294,220.663z"/>
<path style="fill:#CCCCCC;" d="M46.674,248.15c0-13.076,5.021-24.988,13.236-33.911c9.151-9.927,22.261-16.145,36.832-16.145
	c2.225,0,4.404,0.16,6.561,0.445c7.52-27.37,29.426-48.768,57.075-55.559c-6.027-1.479-12.32-2.28-18.804-2.28
	c-2.442,0-4.849,0.114-7.234,0.331c-33.021,3.001-60.143,26.403-68.69,57.508c-2.157-0.285-4.336-0.445-6.561-0.445
	c-14.571,0-27.681,6.219-36.832,16.145c-8.215,8.923-13.236,20.835-13.236,33.911c0,27.647,22.41,50.068,50.068,50.068
	c4.289,0,18.983,0,37.651,0C69.084,298.218,46.674,275.797,46.674,248.15z"/>
<path style="fill:#8CC63F;" d="M421.228,316.189c0,4.37-0.171,8.706-0.491,12.996c-9.174-5.055-19.705-7.919-30.91-7.919
	c-4.267,0-8.444,0.422-12.471,1.209c0.103-2.088,0.16-4.176,0.16-6.287c0-69.146-56.047-125.193-125.193-125.193
	c-12.334,0-24.258,1.78-35.509,5.112c-4.621-14.89-13.544-27.898-25.308-37.551c18.873-7.28,39.377-11.273,60.817-11.273
	C345.613,147.283,421.228,222.899,421.228,316.189z"/>
<path style="fill:#FDBB00;" d="M463.492,316.189c0,17.891-2.225,35.269-6.424,51.871c-1.814,0-3.594,0.126-5.351,0.354
	c-4.644-16.876-15.974-30.967-30.979-39.228c0.319-4.29,0.491-8.626,0.491-12.996c0-93.29-75.616-168.906-168.906-168.906
	c-21.44,0-41.944,3.994-60.817,11.273c-13.601-11.159-30.979-17.857-49.931-17.857c-2.442,0-4.849,0.114-7.234,0.331
	c33.683-22.741,74.281-36.011,117.982-36.011C368.946,105.02,463.492,199.565,463.492,316.189z"/>
<path style="fill:#EF602E;" d="M503.907,316.189c0,25.525-3.8,50.171-10.874,73.379c-6.88-12.802-20.402-21.508-35.965-21.508
	c4.199-16.602,6.424-33.98,6.424-51.871c0-116.624-94.545-211.169-211.169-211.169c-43.701,0-84.299,13.27-117.982,36.011
	c-33.021,3.001-60.143,26.403-68.69,57.508c-2.157-0.285-4.336-0.445-6.561-0.445c-14.571,0-27.681,6.219-36.832,16.145
	C61.372,126.083,149.676,64.605,252.323,64.605C391.265,64.605,503.907,177.247,503.907,316.189z"/>
<path d="M467.057,359.479c2.989-14.548,4.528-29.448,4.528-44.431c0-26.886-4.803-53.151-14.274-78.065
	c-1.68-4.419-6.625-6.636-11.041-4.958c-4.418,1.68-6.637,6.622-4.959,11.039c8.73,22.964,13.157,47.184,13.157,71.983
	c0,10.818-0.865,21.586-2.556,32.185c-5.666-9.524-13.477-17.726-22.809-23.838c0.129-2.806,0.217-5.6,0.217-8.347
	c0-36.707-11.109-71.932-32.128-101.867c-20.543-29.259-48.996-51.413-82.281-64.067c-4.413-1.675-9.36,0.54-11.041,4.959
	c-1.68,4.418,0.541,9.361,4.959,11.041c30.074,11.433,55.787,31.456,74.356,57.904c18.986,27.04,29.021,58.864,29.021,92.033
	c0,0.064-0.003,0.13-0.003,0.193c-7.332-2.417-15.056-3.673-22.839-3.673c-1.264,0-2.531,0.039-3.797,0.105
	c-1.797-72.197-61.086-130.376-133.709-130.376c-4.726,0-8.558,3.832-8.558,8.558c0,4.726,3.832,8.558,8.558,8.558
	c64.171,0,116.398,52.091,116.63,116.208c-28.819,8.612-49.577,34.403-51.717,64.553c-14.62,6.378-24.361,20.884-24.361,37.266
	c0,22.417,18.243,40.655,40.666,40.655h123.527c27.224,0,49.373-22.143,49.373-49.361c0-8.139-2.029-16.215-5.869-23.358
	C493.169,371.466,481.022,362.495,467.057,359.479z M456.603,439.979H333.076c-12.986,0-23.551-10.56-23.551-23.539
	c0-10.795,7.3-20.184,17.757-22.831c3.905-0.989,6.591-4.568,6.45-8.594l-0.029-0.682c0-26.521,18.858-49.484,44.83-54.597
	c3.567-0.697,7.209-1.051,10.829-1.051c9.38,0,18.64,2.371,26.783,6.858c13.106,7.215,22.893,19.608,26.855,34.003
	c1.132,4.112,5.111,6.769,9.352,6.215c1.466-0.191,2.857-0.283,4.25-0.283c11.899,0,22.792,6.514,28.427,17.002
	c0,0,0.001,0,0.001,0.001c2.541,4.725,3.828,9.857,3.828,15.253C488.86,425.514,474.391,439.979,456.603,439.979z"/>
<path d="M435.805,131.101C386.67,81.965,321.343,54.906,251.858,54.906c-102.36,0-195.365,60.21-237.333,153.502
	C5.156,219.107,0,232.751,0,247.009c0,32.326,26.299,58.626,58.626,58.626h151.516c4.726,0,8.558-3.832,8.558-8.558
	c0-4.726-3.832-8.558-8.558-8.558H58.626c-22.889,0-41.51-18.622-41.51-41.51c0-10.444,3.898-20.429,10.97-28.111
	c7.845-8.509,18.975-13.388,30.541-13.388c1.771,0,3.55,0.121,5.439,0.371c4.237,0.559,8.242-2.093,9.374-6.216
	c7.701-28.028,32.3-48.625,61.211-51.251c2.16-0.196,4.334-0.296,6.46-0.296c16.189,0,31.994,5.653,44.502,15.915
	c10.686,8.769,18.489,20.343,22.56,33.463c2.079,6.725,3.133,13.732,3.133,20.829c0,0.159-0.008,0.318-0.015,0.477l-0.016,0.471
	c-0.118,4.011,2.567,7.564,6.456,8.547c13.677,3.458,23.229,15.746,23.229,29.882c0,8.232-3.206,15.972-9.027,21.792
	c-3.342,3.342-3.342,8.761,0,12.102c3.342,3.342,8.761,3.342,12.102,0c9.054-9.054,14.039-21.091,14.039-33.895
	c0-19.721-11.966-37.133-29.797-44.392c-0.403-7.097-1.661-14.098-3.756-20.878c-3.502-11.284-9.216-21.64-16.791-30.559
	c13.579-3.223,32.349-7.17,44.126-7.17c9.695,0,19.403,0.871,28.859,2.588c4.647,0.84,9.104-2.24,9.949-6.892
	c0.844-4.65-2.241-9.104-6.891-9.949c-10.461-1.9-21.198-2.863-31.916-2.863c-20.39,0-40.331,3.424-59.353,10.172
	c-9.227-6.718-19.68-11.541-30.7-14.237c27.826-13.838,58.501-21.084,90.053-21.084c72.567,0,140.03,39.19,176.063,102.273
	c1.58,2.765,4.467,4.315,7.439,4.315c1.439,0,2.898-0.364,4.237-1.128c4.104-2.345,5.532-7.572,3.187-11.675
	c-18.896-33.082-46.209-60.844-78.986-80.286c-33.764-20.031-72.472-30.617-111.939-30.617c-43.282,0-85.06,12.547-120.976,36.289
	c-32.666,3.827-60.584,26.082-71.797,56.786c-5.435-0.032-10.809,0.71-15.977,2.135c43.483-72.822,122.566-118.51,208.749-118.51
	c134.005,0,243.027,109.021,243.027,243.027c0,12.16-0.905,24.37-2.688,36.291c-0.699,4.675,2.522,9.031,7.196,9.731
	c0.429,0.064,0.856,0.095,1.278,0.095c4.165,0,7.817-3.047,8.452-7.292c1.91-12.758,2.878-25.82,2.878-38.826
	C512,245.563,484.94,180.236,435.805,131.101z"/>
</svg>